G04 EAGLE Gerber RS-274X export*
G75*
%MOMM*%
%FSLAX34Y34*%
%LPD*%
%INTop Copper*%
%IPPOS*%
%AMOC8*
5,1,8,0,0,1.08239X$1,22.5*%
G01*
%ADD10C,0.130000*%
%ADD11C,0.152400*%
%ADD12P,1.429621X8X112.500000*%
%ADD13C,1.676400*%
%ADD14C,1.320800*%
%ADD15C,1.422400*%
%ADD16P,1.539592X8X292.500000*%
%ADD17C,1.498600*%
%ADD18P,1.429621X8X292.500000*%
%ADD19P,1.429621X8X202.500000*%
%ADD20C,1.562100*%
%ADD21C,0.406400*%
%ADD22C,0.756400*%
%ADD23C,0.762000*%


D10*
X1003100Y1000000D02*
X1003100Y1137100D01*
X0Y1137100D02*
X0Y1000000D01*
X650Y1117600D02*
X1002450Y1117600D01*
X977100Y1120792D01*
X977100Y1114408D01*
X1002450Y1117600D01*
X977100Y1118900D01*
X977100Y1116300D02*
X1002450Y1117600D01*
X977100Y1120200D01*
X977100Y1115000D02*
X1002450Y1117600D01*
X26000Y1120792D02*
X650Y1117600D01*
X26000Y1120792D02*
X26000Y1114408D01*
X650Y1117600D01*
X26000Y1118900D01*
X26000Y1116300D02*
X650Y1117600D01*
X26000Y1120200D01*
X26000Y1115000D02*
X650Y1117600D01*
D11*
X463306Y1136751D02*
X467821Y1140363D01*
X467821Y1124107D01*
X463306Y1124107D02*
X472337Y1124107D01*
X478937Y1132235D02*
X478941Y1132555D01*
X478952Y1132874D01*
X478971Y1133194D01*
X478998Y1133512D01*
X479032Y1133830D01*
X479074Y1134147D01*
X479124Y1134463D01*
X479181Y1134778D01*
X479245Y1135091D01*
X479317Y1135403D01*
X479396Y1135713D01*
X479483Y1136020D01*
X479577Y1136326D01*
X479678Y1136629D01*
X479787Y1136930D01*
X479902Y1137228D01*
X480025Y1137524D01*
X480155Y1137816D01*
X480292Y1138105D01*
X480292Y1138106D02*
X480331Y1138214D01*
X480374Y1138321D01*
X480420Y1138426D01*
X480471Y1138530D01*
X480524Y1138632D01*
X480581Y1138732D01*
X480642Y1138830D01*
X480706Y1138925D01*
X480773Y1139019D01*
X480844Y1139110D01*
X480917Y1139199D01*
X480994Y1139285D01*
X481073Y1139368D01*
X481155Y1139449D01*
X481240Y1139527D01*
X481328Y1139601D01*
X481418Y1139673D01*
X481510Y1139741D01*
X481605Y1139807D01*
X481702Y1139869D01*
X481801Y1139927D01*
X481903Y1139983D01*
X482005Y1140034D01*
X482110Y1140082D01*
X482216Y1140127D01*
X482324Y1140168D01*
X482433Y1140205D01*
X482543Y1140238D01*
X482655Y1140267D01*
X482767Y1140293D01*
X482880Y1140315D01*
X482994Y1140332D01*
X483108Y1140346D01*
X483223Y1140356D01*
X483338Y1140362D01*
X483453Y1140364D01*
X483453Y1140363D02*
X483568Y1140361D01*
X483683Y1140355D01*
X483798Y1140345D01*
X483912Y1140331D01*
X484026Y1140314D01*
X484139Y1140292D01*
X484251Y1140266D01*
X484363Y1140237D01*
X484473Y1140204D01*
X484582Y1140167D01*
X484690Y1140126D01*
X484796Y1140081D01*
X484901Y1140033D01*
X485003Y1139982D01*
X485104Y1139926D01*
X485204Y1139868D01*
X485301Y1139806D01*
X485395Y1139741D01*
X485488Y1139672D01*
X485578Y1139600D01*
X485666Y1139526D01*
X485751Y1139448D01*
X485833Y1139367D01*
X485912Y1139284D01*
X485989Y1139198D01*
X486062Y1139109D01*
X486133Y1139018D01*
X486200Y1138924D01*
X486264Y1138829D01*
X486325Y1138731D01*
X486382Y1138631D01*
X486435Y1138529D01*
X486486Y1138425D01*
X486532Y1138320D01*
X486575Y1138213D01*
X486614Y1138105D01*
X486613Y1138105D02*
X486750Y1137816D01*
X486880Y1137524D01*
X487003Y1137228D01*
X487118Y1136930D01*
X487227Y1136629D01*
X487328Y1136326D01*
X487422Y1136020D01*
X487509Y1135713D01*
X487588Y1135403D01*
X487660Y1135091D01*
X487724Y1134778D01*
X487781Y1134463D01*
X487831Y1134147D01*
X487873Y1133830D01*
X487907Y1133512D01*
X487934Y1133194D01*
X487953Y1132874D01*
X487964Y1132555D01*
X487968Y1132235D01*
X478938Y1132235D02*
X478942Y1131915D01*
X478953Y1131596D01*
X478972Y1131276D01*
X478999Y1130958D01*
X479033Y1130640D01*
X479075Y1130323D01*
X479125Y1130007D01*
X479182Y1129692D01*
X479246Y1129379D01*
X479318Y1129067D01*
X479397Y1128757D01*
X479484Y1128450D01*
X479578Y1128144D01*
X479679Y1127841D01*
X479788Y1127540D01*
X479903Y1127242D01*
X480026Y1126946D01*
X480156Y1126654D01*
X480293Y1126365D01*
X480292Y1126365D02*
X480331Y1126257D01*
X480374Y1126150D01*
X480420Y1126045D01*
X480471Y1125941D01*
X480524Y1125839D01*
X480581Y1125739D01*
X480642Y1125641D01*
X480706Y1125546D01*
X480773Y1125452D01*
X480844Y1125361D01*
X480917Y1125272D01*
X480994Y1125186D01*
X481073Y1125103D01*
X481155Y1125022D01*
X481240Y1124944D01*
X481328Y1124870D01*
X481418Y1124798D01*
X481511Y1124729D01*
X481605Y1124664D01*
X481702Y1124602D01*
X481802Y1124544D01*
X481903Y1124488D01*
X482005Y1124437D01*
X482110Y1124389D01*
X482216Y1124344D01*
X482324Y1124303D01*
X482433Y1124266D01*
X482543Y1124233D01*
X482655Y1124204D01*
X482767Y1124178D01*
X482880Y1124156D01*
X482994Y1124139D01*
X483108Y1124125D01*
X483223Y1124115D01*
X483338Y1124109D01*
X483453Y1124107D01*
X486613Y1126365D02*
X486750Y1126654D01*
X486880Y1126946D01*
X487003Y1127242D01*
X487118Y1127540D01*
X487227Y1127841D01*
X487328Y1128144D01*
X487422Y1128450D01*
X487509Y1128757D01*
X487588Y1129067D01*
X487660Y1129379D01*
X487724Y1129692D01*
X487781Y1130007D01*
X487831Y1130323D01*
X487873Y1130640D01*
X487907Y1130958D01*
X487934Y1131276D01*
X487953Y1131596D01*
X487964Y1131915D01*
X487968Y1132235D01*
X486614Y1126365D02*
X486575Y1126257D01*
X486532Y1126150D01*
X486486Y1126045D01*
X486435Y1125941D01*
X486382Y1125839D01*
X486325Y1125739D01*
X486264Y1125641D01*
X486200Y1125546D01*
X486133Y1125452D01*
X486062Y1125361D01*
X485989Y1125272D01*
X485912Y1125186D01*
X485833Y1125103D01*
X485751Y1125022D01*
X485666Y1124944D01*
X485578Y1124870D01*
X485488Y1124798D01*
X485395Y1124729D01*
X485301Y1124664D01*
X485204Y1124602D01*
X485104Y1124544D01*
X485003Y1124488D01*
X484900Y1124437D01*
X484796Y1124389D01*
X484690Y1124344D01*
X484582Y1124303D01*
X484473Y1124266D01*
X484363Y1124233D01*
X484251Y1124204D01*
X484139Y1124178D01*
X484026Y1124156D01*
X483912Y1124139D01*
X483798Y1124125D01*
X483683Y1124115D01*
X483568Y1124109D01*
X483453Y1124107D01*
X479840Y1127719D02*
X487065Y1136751D01*
X494569Y1132235D02*
X494573Y1132555D01*
X494584Y1132874D01*
X494603Y1133194D01*
X494630Y1133512D01*
X494664Y1133830D01*
X494706Y1134147D01*
X494756Y1134463D01*
X494813Y1134778D01*
X494877Y1135091D01*
X494949Y1135403D01*
X495028Y1135713D01*
X495115Y1136020D01*
X495209Y1136326D01*
X495310Y1136629D01*
X495419Y1136930D01*
X495534Y1137228D01*
X495657Y1137524D01*
X495787Y1137816D01*
X495924Y1138105D01*
X495923Y1138106D02*
X495962Y1138214D01*
X496005Y1138321D01*
X496051Y1138426D01*
X496102Y1138530D01*
X496155Y1138632D01*
X496212Y1138732D01*
X496273Y1138830D01*
X496337Y1138925D01*
X496404Y1139019D01*
X496475Y1139110D01*
X496548Y1139199D01*
X496625Y1139285D01*
X496704Y1139368D01*
X496786Y1139449D01*
X496871Y1139527D01*
X496959Y1139601D01*
X497049Y1139673D01*
X497141Y1139741D01*
X497236Y1139807D01*
X497333Y1139869D01*
X497432Y1139927D01*
X497534Y1139983D01*
X497636Y1140034D01*
X497741Y1140082D01*
X497847Y1140127D01*
X497955Y1140168D01*
X498064Y1140205D01*
X498174Y1140238D01*
X498286Y1140267D01*
X498398Y1140293D01*
X498511Y1140315D01*
X498625Y1140332D01*
X498739Y1140346D01*
X498854Y1140356D01*
X498969Y1140362D01*
X499084Y1140364D01*
X499084Y1140363D02*
X499199Y1140361D01*
X499314Y1140355D01*
X499429Y1140345D01*
X499543Y1140331D01*
X499657Y1140314D01*
X499770Y1140292D01*
X499882Y1140266D01*
X499994Y1140237D01*
X500104Y1140204D01*
X500213Y1140167D01*
X500321Y1140126D01*
X500427Y1140081D01*
X500532Y1140033D01*
X500634Y1139982D01*
X500735Y1139926D01*
X500835Y1139868D01*
X500932Y1139806D01*
X501026Y1139741D01*
X501119Y1139672D01*
X501209Y1139600D01*
X501297Y1139526D01*
X501382Y1139448D01*
X501464Y1139367D01*
X501543Y1139284D01*
X501620Y1139198D01*
X501693Y1139109D01*
X501764Y1139018D01*
X501831Y1138924D01*
X501895Y1138829D01*
X501956Y1138731D01*
X502013Y1138631D01*
X502066Y1138529D01*
X502117Y1138425D01*
X502163Y1138320D01*
X502206Y1138213D01*
X502245Y1138105D01*
X502244Y1138105D02*
X502381Y1137816D01*
X502511Y1137524D01*
X502634Y1137228D01*
X502749Y1136930D01*
X502858Y1136629D01*
X502959Y1136326D01*
X503053Y1136020D01*
X503140Y1135713D01*
X503219Y1135403D01*
X503291Y1135091D01*
X503355Y1134778D01*
X503412Y1134463D01*
X503462Y1134147D01*
X503504Y1133830D01*
X503538Y1133512D01*
X503565Y1133194D01*
X503584Y1132874D01*
X503595Y1132555D01*
X503599Y1132235D01*
X494569Y1132235D02*
X494573Y1131915D01*
X494584Y1131596D01*
X494603Y1131276D01*
X494630Y1130958D01*
X494664Y1130640D01*
X494706Y1130323D01*
X494756Y1130007D01*
X494813Y1129692D01*
X494877Y1129379D01*
X494949Y1129067D01*
X495028Y1128757D01*
X495115Y1128450D01*
X495209Y1128144D01*
X495310Y1127841D01*
X495419Y1127540D01*
X495534Y1127242D01*
X495657Y1126946D01*
X495787Y1126654D01*
X495924Y1126365D01*
X495923Y1126365D02*
X495962Y1126257D01*
X496005Y1126150D01*
X496051Y1126045D01*
X496102Y1125941D01*
X496155Y1125839D01*
X496212Y1125739D01*
X496273Y1125641D01*
X496337Y1125546D01*
X496404Y1125452D01*
X496475Y1125361D01*
X496548Y1125272D01*
X496625Y1125186D01*
X496704Y1125103D01*
X496786Y1125022D01*
X496871Y1124944D01*
X496959Y1124870D01*
X497049Y1124798D01*
X497142Y1124729D01*
X497236Y1124664D01*
X497333Y1124602D01*
X497433Y1124544D01*
X497534Y1124488D01*
X497636Y1124437D01*
X497741Y1124389D01*
X497847Y1124344D01*
X497955Y1124303D01*
X498064Y1124266D01*
X498174Y1124233D01*
X498286Y1124204D01*
X498398Y1124178D01*
X498511Y1124156D01*
X498625Y1124139D01*
X498739Y1124125D01*
X498854Y1124115D01*
X498969Y1124109D01*
X499084Y1124107D01*
X502244Y1126365D02*
X502381Y1126654D01*
X502511Y1126946D01*
X502634Y1127242D01*
X502749Y1127540D01*
X502858Y1127841D01*
X502959Y1128144D01*
X503053Y1128450D01*
X503140Y1128757D01*
X503219Y1129067D01*
X503291Y1129379D01*
X503355Y1129692D01*
X503412Y1130007D01*
X503462Y1130323D01*
X503504Y1130640D01*
X503538Y1130958D01*
X503565Y1131276D01*
X503584Y1131596D01*
X503595Y1131915D01*
X503599Y1132235D01*
X502245Y1126365D02*
X502206Y1126257D01*
X502163Y1126150D01*
X502117Y1126045D01*
X502066Y1125941D01*
X502013Y1125839D01*
X501956Y1125739D01*
X501895Y1125641D01*
X501831Y1125546D01*
X501764Y1125452D01*
X501693Y1125361D01*
X501620Y1125272D01*
X501543Y1125186D01*
X501464Y1125103D01*
X501382Y1125022D01*
X501297Y1124944D01*
X501209Y1124870D01*
X501119Y1124798D01*
X501026Y1124729D01*
X500932Y1124664D01*
X500835Y1124602D01*
X500735Y1124544D01*
X500634Y1124488D01*
X500531Y1124437D01*
X500427Y1124389D01*
X500321Y1124344D01*
X500213Y1124303D01*
X500104Y1124266D01*
X499994Y1124233D01*
X499882Y1124204D01*
X499770Y1124178D01*
X499657Y1124156D01*
X499543Y1124139D01*
X499429Y1124125D01*
X499314Y1124115D01*
X499199Y1124109D01*
X499084Y1124107D01*
X495471Y1127719D02*
X502696Y1136751D01*
X509574Y1125010D02*
X509574Y1124107D01*
X509574Y1125010D02*
X510477Y1125010D01*
X510477Y1124107D01*
X509574Y1124107D01*
X516452Y1124107D02*
X520968Y1124107D01*
X521101Y1124109D01*
X521233Y1124115D01*
X521365Y1124125D01*
X521497Y1124138D01*
X521629Y1124156D01*
X521759Y1124177D01*
X521890Y1124202D01*
X522019Y1124231D01*
X522147Y1124264D01*
X522275Y1124300D01*
X522401Y1124340D01*
X522526Y1124384D01*
X522650Y1124432D01*
X522772Y1124483D01*
X522893Y1124538D01*
X523012Y1124596D01*
X523130Y1124658D01*
X523245Y1124723D01*
X523359Y1124792D01*
X523470Y1124863D01*
X523579Y1124939D01*
X523686Y1125017D01*
X523791Y1125098D01*
X523893Y1125183D01*
X523993Y1125270D01*
X524090Y1125360D01*
X524185Y1125453D01*
X524276Y1125549D01*
X524365Y1125647D01*
X524451Y1125748D01*
X524534Y1125852D01*
X524614Y1125958D01*
X524690Y1126066D01*
X524764Y1126176D01*
X524834Y1126289D01*
X524901Y1126403D01*
X524964Y1126520D01*
X525024Y1126638D01*
X525081Y1126758D01*
X525134Y1126880D01*
X525183Y1127003D01*
X525229Y1127127D01*
X525271Y1127253D01*
X525309Y1127380D01*
X525344Y1127508D01*
X525375Y1127637D01*
X525402Y1127766D01*
X525425Y1127897D01*
X525445Y1128028D01*
X525460Y1128160D01*
X525472Y1128292D01*
X525480Y1128424D01*
X525484Y1128557D01*
X525484Y1128689D01*
X525480Y1128822D01*
X525472Y1128954D01*
X525460Y1129086D01*
X525445Y1129218D01*
X525425Y1129349D01*
X525402Y1129480D01*
X525375Y1129609D01*
X525344Y1129738D01*
X525309Y1129866D01*
X525271Y1129993D01*
X525229Y1130119D01*
X525183Y1130243D01*
X525134Y1130366D01*
X525081Y1130488D01*
X525024Y1130608D01*
X524964Y1130726D01*
X524901Y1130843D01*
X524834Y1130957D01*
X524764Y1131070D01*
X524690Y1131180D01*
X524614Y1131288D01*
X524534Y1131394D01*
X524451Y1131498D01*
X524365Y1131599D01*
X524276Y1131697D01*
X524185Y1131793D01*
X524090Y1131886D01*
X523993Y1131976D01*
X523893Y1132063D01*
X523791Y1132148D01*
X523686Y1132229D01*
X523579Y1132307D01*
X523470Y1132383D01*
X523359Y1132454D01*
X523245Y1132523D01*
X523130Y1132588D01*
X523012Y1132650D01*
X522893Y1132708D01*
X522772Y1132763D01*
X522650Y1132814D01*
X522526Y1132862D01*
X522401Y1132906D01*
X522275Y1132946D01*
X522147Y1132982D01*
X522019Y1133015D01*
X521890Y1133044D01*
X521759Y1133069D01*
X521629Y1133090D01*
X521497Y1133108D01*
X521365Y1133121D01*
X521233Y1133131D01*
X521101Y1133137D01*
X520968Y1133139D01*
X521871Y1140363D02*
X516452Y1140363D01*
X521871Y1140363D02*
X521990Y1140361D01*
X522110Y1140355D01*
X522229Y1140345D01*
X522347Y1140331D01*
X522466Y1140314D01*
X522583Y1140292D01*
X522700Y1140267D01*
X522815Y1140237D01*
X522930Y1140204D01*
X523044Y1140167D01*
X523156Y1140127D01*
X523267Y1140082D01*
X523376Y1140034D01*
X523484Y1139983D01*
X523590Y1139928D01*
X523694Y1139869D01*
X523796Y1139807D01*
X523896Y1139742D01*
X523994Y1139673D01*
X524090Y1139601D01*
X524183Y1139526D01*
X524273Y1139449D01*
X524361Y1139368D01*
X524446Y1139284D01*
X524528Y1139197D01*
X524608Y1139108D01*
X524684Y1139016D01*
X524758Y1138922D01*
X524828Y1138825D01*
X524895Y1138727D01*
X524959Y1138626D01*
X525019Y1138522D01*
X525076Y1138417D01*
X525129Y1138310D01*
X525179Y1138202D01*
X525225Y1138092D01*
X525267Y1137980D01*
X525306Y1137867D01*
X525341Y1137753D01*
X525372Y1137638D01*
X525400Y1137521D01*
X525423Y1137404D01*
X525443Y1137287D01*
X525459Y1137168D01*
X525471Y1137049D01*
X525479Y1136930D01*
X525483Y1136811D01*
X525483Y1136691D01*
X525479Y1136572D01*
X525471Y1136453D01*
X525459Y1136334D01*
X525443Y1136215D01*
X525423Y1136098D01*
X525400Y1135981D01*
X525372Y1135864D01*
X525341Y1135749D01*
X525306Y1135635D01*
X525267Y1135522D01*
X525225Y1135410D01*
X525179Y1135300D01*
X525129Y1135192D01*
X525076Y1135085D01*
X525019Y1134980D01*
X524959Y1134876D01*
X524895Y1134775D01*
X524828Y1134677D01*
X524758Y1134580D01*
X524684Y1134486D01*
X524608Y1134394D01*
X524528Y1134305D01*
X524446Y1134218D01*
X524361Y1134134D01*
X524273Y1134053D01*
X524183Y1133976D01*
X524090Y1133901D01*
X523994Y1133829D01*
X523896Y1133760D01*
X523796Y1133695D01*
X523694Y1133633D01*
X523590Y1133574D01*
X523484Y1133519D01*
X523376Y1133468D01*
X523267Y1133420D01*
X523156Y1133375D01*
X523044Y1133335D01*
X522930Y1133298D01*
X522815Y1133265D01*
X522700Y1133235D01*
X522583Y1133210D01*
X522466Y1133188D01*
X522347Y1133171D01*
X522229Y1133157D01*
X522110Y1133147D01*
X521990Y1133141D01*
X521871Y1133139D01*
X521871Y1133138D02*
X518258Y1133138D01*
X532083Y1136751D02*
X536599Y1140363D01*
X536599Y1124107D01*
X541114Y1124107D02*
X532083Y1124107D01*
D10*
X1003100Y-342900D02*
X1060900Y-342900D01*
X1060900Y1000000D02*
X1003100Y1000000D01*
X1041400Y999350D02*
X1041400Y-342250D01*
X1038208Y-316900D01*
X1044592Y-316900D01*
X1041400Y-342250D01*
X1040100Y-316900D01*
X1042700Y-316900D02*
X1041400Y-342250D01*
X1038800Y-316900D01*
X1044000Y-316900D02*
X1041400Y-342250D01*
X1038208Y974000D02*
X1041400Y999350D01*
X1038208Y974000D02*
X1044592Y974000D01*
X1041400Y999350D01*
X1040100Y974000D01*
X1042700Y974000D02*
X1041400Y999350D01*
X1038800Y974000D01*
X1044000Y974000D02*
X1041400Y999350D01*
D11*
X1018637Y294821D02*
X1022249Y290306D01*
X1018637Y294821D02*
X1034893Y294821D01*
X1034893Y290306D02*
X1034893Y299337D01*
X1034893Y305937D02*
X1034893Y310453D01*
X1034891Y310586D01*
X1034885Y310718D01*
X1034875Y310850D01*
X1034862Y310982D01*
X1034844Y311114D01*
X1034823Y311244D01*
X1034798Y311375D01*
X1034769Y311504D01*
X1034736Y311632D01*
X1034700Y311760D01*
X1034660Y311886D01*
X1034616Y312011D01*
X1034568Y312135D01*
X1034517Y312257D01*
X1034462Y312378D01*
X1034404Y312497D01*
X1034342Y312615D01*
X1034277Y312730D01*
X1034208Y312844D01*
X1034137Y312955D01*
X1034061Y313064D01*
X1033983Y313171D01*
X1033902Y313276D01*
X1033817Y313378D01*
X1033730Y313478D01*
X1033640Y313575D01*
X1033547Y313670D01*
X1033451Y313761D01*
X1033353Y313850D01*
X1033252Y313936D01*
X1033148Y314019D01*
X1033042Y314099D01*
X1032934Y314175D01*
X1032824Y314249D01*
X1032711Y314319D01*
X1032597Y314386D01*
X1032480Y314449D01*
X1032362Y314509D01*
X1032242Y314566D01*
X1032120Y314619D01*
X1031997Y314668D01*
X1031873Y314714D01*
X1031747Y314756D01*
X1031620Y314794D01*
X1031492Y314829D01*
X1031363Y314860D01*
X1031234Y314887D01*
X1031103Y314910D01*
X1030972Y314930D01*
X1030840Y314945D01*
X1030708Y314957D01*
X1030576Y314965D01*
X1030443Y314969D01*
X1030311Y314969D01*
X1030178Y314965D01*
X1030046Y314957D01*
X1029914Y314945D01*
X1029782Y314930D01*
X1029651Y314910D01*
X1029520Y314887D01*
X1029391Y314860D01*
X1029262Y314829D01*
X1029134Y314794D01*
X1029007Y314756D01*
X1028881Y314714D01*
X1028757Y314668D01*
X1028634Y314619D01*
X1028512Y314566D01*
X1028392Y314509D01*
X1028274Y314449D01*
X1028157Y314386D01*
X1028043Y314319D01*
X1027930Y314249D01*
X1027820Y314175D01*
X1027712Y314099D01*
X1027606Y314019D01*
X1027502Y313936D01*
X1027401Y313850D01*
X1027303Y313761D01*
X1027207Y313670D01*
X1027114Y313575D01*
X1027024Y313478D01*
X1026937Y313378D01*
X1026852Y313276D01*
X1026771Y313171D01*
X1026693Y313064D01*
X1026617Y312955D01*
X1026546Y312844D01*
X1026477Y312730D01*
X1026412Y312615D01*
X1026350Y312497D01*
X1026292Y312378D01*
X1026237Y312257D01*
X1026186Y312135D01*
X1026138Y312011D01*
X1026094Y311886D01*
X1026054Y311760D01*
X1026018Y311632D01*
X1025985Y311504D01*
X1025956Y311375D01*
X1025931Y311244D01*
X1025910Y311114D01*
X1025892Y310982D01*
X1025879Y310850D01*
X1025869Y310718D01*
X1025863Y310586D01*
X1025861Y310453D01*
X1018637Y311356D02*
X1018637Y305937D01*
X1018637Y311356D02*
X1018639Y311475D01*
X1018645Y311595D01*
X1018655Y311714D01*
X1018669Y311832D01*
X1018686Y311951D01*
X1018708Y312068D01*
X1018733Y312185D01*
X1018763Y312300D01*
X1018796Y312415D01*
X1018833Y312529D01*
X1018873Y312641D01*
X1018918Y312752D01*
X1018966Y312861D01*
X1019017Y312969D01*
X1019072Y313075D01*
X1019131Y313179D01*
X1019193Y313281D01*
X1019258Y313381D01*
X1019327Y313479D01*
X1019399Y313575D01*
X1019474Y313668D01*
X1019551Y313758D01*
X1019632Y313846D01*
X1019716Y313931D01*
X1019803Y314013D01*
X1019892Y314093D01*
X1019984Y314169D01*
X1020078Y314243D01*
X1020175Y314313D01*
X1020273Y314380D01*
X1020374Y314444D01*
X1020478Y314504D01*
X1020583Y314561D01*
X1020690Y314614D01*
X1020798Y314664D01*
X1020908Y314710D01*
X1021020Y314752D01*
X1021133Y314791D01*
X1021247Y314826D01*
X1021362Y314857D01*
X1021479Y314885D01*
X1021596Y314908D01*
X1021713Y314928D01*
X1021832Y314944D01*
X1021951Y314956D01*
X1022070Y314964D01*
X1022189Y314968D01*
X1022309Y314968D01*
X1022428Y314964D01*
X1022547Y314956D01*
X1022666Y314944D01*
X1022785Y314928D01*
X1022902Y314908D01*
X1023019Y314885D01*
X1023136Y314857D01*
X1023251Y314826D01*
X1023365Y314791D01*
X1023478Y314752D01*
X1023590Y314710D01*
X1023700Y314664D01*
X1023808Y314614D01*
X1023915Y314561D01*
X1024020Y314504D01*
X1024124Y314444D01*
X1024225Y314380D01*
X1024323Y314313D01*
X1024420Y314243D01*
X1024514Y314169D01*
X1024606Y314093D01*
X1024695Y314013D01*
X1024782Y313931D01*
X1024866Y313846D01*
X1024947Y313758D01*
X1025024Y313668D01*
X1025099Y313575D01*
X1025171Y313479D01*
X1025240Y313381D01*
X1025305Y313281D01*
X1025367Y313179D01*
X1025426Y313075D01*
X1025481Y312969D01*
X1025532Y312861D01*
X1025580Y312752D01*
X1025625Y312641D01*
X1025665Y312529D01*
X1025702Y312415D01*
X1025735Y312300D01*
X1025765Y312185D01*
X1025790Y312068D01*
X1025812Y311951D01*
X1025829Y311832D01*
X1025843Y311714D01*
X1025853Y311595D01*
X1025859Y311475D01*
X1025861Y311356D01*
X1025862Y311356D02*
X1025862Y307743D01*
X1031281Y321568D02*
X1018637Y325181D01*
X1031281Y321568D02*
X1031281Y330599D01*
X1027668Y327890D02*
X1034893Y327890D01*
X1034893Y336574D02*
X1033990Y336574D01*
X1033990Y337477D01*
X1034893Y337477D01*
X1034893Y336574D01*
X1022701Y352483D02*
X1022576Y352481D01*
X1022451Y352475D01*
X1022326Y352466D01*
X1022202Y352452D01*
X1022078Y352435D01*
X1021954Y352414D01*
X1021832Y352389D01*
X1021710Y352360D01*
X1021589Y352328D01*
X1021469Y352292D01*
X1021350Y352252D01*
X1021233Y352209D01*
X1021117Y352162D01*
X1021002Y352111D01*
X1020890Y352057D01*
X1020778Y351999D01*
X1020669Y351939D01*
X1020562Y351874D01*
X1020456Y351807D01*
X1020353Y351736D01*
X1020252Y351662D01*
X1020153Y351585D01*
X1020057Y351505D01*
X1019963Y351422D01*
X1019872Y351337D01*
X1019783Y351248D01*
X1019698Y351157D01*
X1019615Y351063D01*
X1019535Y350967D01*
X1019458Y350868D01*
X1019384Y350767D01*
X1019313Y350664D01*
X1019246Y350558D01*
X1019181Y350451D01*
X1019121Y350342D01*
X1019063Y350230D01*
X1019009Y350118D01*
X1018958Y350003D01*
X1018911Y349887D01*
X1018868Y349770D01*
X1018828Y349651D01*
X1018792Y349531D01*
X1018760Y349410D01*
X1018731Y349288D01*
X1018706Y349166D01*
X1018685Y349042D01*
X1018668Y348918D01*
X1018654Y348794D01*
X1018645Y348669D01*
X1018639Y348544D01*
X1018637Y348419D01*
X1018639Y348276D01*
X1018645Y348134D01*
X1018655Y347991D01*
X1018668Y347849D01*
X1018686Y347708D01*
X1018707Y347566D01*
X1018732Y347426D01*
X1018761Y347286D01*
X1018794Y347147D01*
X1018831Y347009D01*
X1018871Y346872D01*
X1018915Y346737D01*
X1018963Y346602D01*
X1019015Y346469D01*
X1019070Y346337D01*
X1019129Y346207D01*
X1019191Y346079D01*
X1019257Y345952D01*
X1019326Y345827D01*
X1019398Y345704D01*
X1019474Y345583D01*
X1019553Y345465D01*
X1019636Y345348D01*
X1019721Y345234D01*
X1019810Y345122D01*
X1019901Y345013D01*
X1019996Y344906D01*
X1020093Y344801D01*
X1020194Y344700D01*
X1020297Y344601D01*
X1020402Y344505D01*
X1020511Y344412D01*
X1020622Y344322D01*
X1020735Y344235D01*
X1020850Y344151D01*
X1020968Y344071D01*
X1021088Y343993D01*
X1021210Y343919D01*
X1021334Y343849D01*
X1021460Y343781D01*
X1021588Y343718D01*
X1021717Y343657D01*
X1021848Y343600D01*
X1021980Y343547D01*
X1022114Y343498D01*
X1022249Y343452D01*
X1025862Y351128D02*
X1025770Y351222D01*
X1025676Y351312D01*
X1025579Y351400D01*
X1025479Y351485D01*
X1025377Y351567D01*
X1025272Y351645D01*
X1025165Y351721D01*
X1025056Y351793D01*
X1024945Y351862D01*
X1024831Y351928D01*
X1024716Y351990D01*
X1024599Y352049D01*
X1024480Y352104D01*
X1024360Y352155D01*
X1024238Y352203D01*
X1024115Y352248D01*
X1023991Y352288D01*
X1023865Y352325D01*
X1023738Y352358D01*
X1023611Y352387D01*
X1023482Y352413D01*
X1023353Y352434D01*
X1023223Y352452D01*
X1023093Y352465D01*
X1022963Y352475D01*
X1022832Y352481D01*
X1022701Y352483D01*
X1025862Y351129D02*
X1034893Y343452D01*
X1034893Y352483D01*
X1027668Y362696D02*
X1027668Y368114D01*
X1027668Y362696D02*
X1027666Y362578D01*
X1027660Y362460D01*
X1027651Y362342D01*
X1027637Y362225D01*
X1027620Y362108D01*
X1027599Y361991D01*
X1027574Y361876D01*
X1027545Y361761D01*
X1027512Y361647D01*
X1027476Y361535D01*
X1027436Y361424D01*
X1027393Y361314D01*
X1027346Y361205D01*
X1027296Y361098D01*
X1027241Y360993D01*
X1027184Y360890D01*
X1027123Y360789D01*
X1027059Y360689D01*
X1026992Y360592D01*
X1026922Y360497D01*
X1026848Y360405D01*
X1026772Y360314D01*
X1026692Y360227D01*
X1026610Y360142D01*
X1026525Y360060D01*
X1026438Y359980D01*
X1026347Y359904D01*
X1026255Y359830D01*
X1026160Y359760D01*
X1026063Y359693D01*
X1025963Y359629D01*
X1025862Y359568D01*
X1025759Y359511D01*
X1025654Y359456D01*
X1025547Y359406D01*
X1025438Y359359D01*
X1025328Y359316D01*
X1025217Y359276D01*
X1025105Y359240D01*
X1024991Y359207D01*
X1024876Y359178D01*
X1024761Y359153D01*
X1024644Y359132D01*
X1024527Y359115D01*
X1024410Y359101D01*
X1024292Y359092D01*
X1024174Y359086D01*
X1024056Y359084D01*
X1024056Y359083D02*
X1023153Y359083D01*
X1023020Y359085D01*
X1022888Y359091D01*
X1022756Y359101D01*
X1022624Y359114D01*
X1022492Y359132D01*
X1022362Y359153D01*
X1022231Y359178D01*
X1022102Y359207D01*
X1021974Y359240D01*
X1021846Y359276D01*
X1021720Y359316D01*
X1021595Y359360D01*
X1021471Y359408D01*
X1021349Y359459D01*
X1021228Y359514D01*
X1021109Y359572D01*
X1020991Y359634D01*
X1020876Y359699D01*
X1020762Y359768D01*
X1020651Y359839D01*
X1020542Y359915D01*
X1020435Y359993D01*
X1020330Y360074D01*
X1020228Y360159D01*
X1020128Y360246D01*
X1020031Y360336D01*
X1019936Y360429D01*
X1019845Y360525D01*
X1019756Y360623D01*
X1019670Y360724D01*
X1019587Y360828D01*
X1019507Y360934D01*
X1019431Y361042D01*
X1019357Y361152D01*
X1019287Y361265D01*
X1019220Y361379D01*
X1019157Y361496D01*
X1019097Y361614D01*
X1019040Y361734D01*
X1018987Y361856D01*
X1018938Y361979D01*
X1018892Y362103D01*
X1018850Y362229D01*
X1018812Y362356D01*
X1018777Y362484D01*
X1018746Y362613D01*
X1018719Y362742D01*
X1018696Y362873D01*
X1018676Y363004D01*
X1018661Y363136D01*
X1018649Y363268D01*
X1018641Y363400D01*
X1018637Y363533D01*
X1018637Y363665D01*
X1018641Y363798D01*
X1018649Y363930D01*
X1018661Y364062D01*
X1018676Y364194D01*
X1018696Y364325D01*
X1018719Y364456D01*
X1018746Y364585D01*
X1018777Y364714D01*
X1018812Y364842D01*
X1018850Y364969D01*
X1018892Y365095D01*
X1018938Y365219D01*
X1018987Y365342D01*
X1019040Y365464D01*
X1019097Y365584D01*
X1019157Y365702D01*
X1019220Y365819D01*
X1019287Y365933D01*
X1019357Y366046D01*
X1019431Y366156D01*
X1019507Y366264D01*
X1019587Y366370D01*
X1019670Y366474D01*
X1019756Y366575D01*
X1019845Y366673D01*
X1019936Y366769D01*
X1020031Y366862D01*
X1020128Y366952D01*
X1020228Y367039D01*
X1020330Y367124D01*
X1020435Y367205D01*
X1020542Y367283D01*
X1020651Y367359D01*
X1020762Y367430D01*
X1020876Y367499D01*
X1020991Y367564D01*
X1021109Y367626D01*
X1021228Y367684D01*
X1021349Y367739D01*
X1021471Y367790D01*
X1021595Y367838D01*
X1021720Y367882D01*
X1021846Y367922D01*
X1021974Y367958D01*
X1022102Y367991D01*
X1022231Y368020D01*
X1022362Y368045D01*
X1022492Y368066D01*
X1022624Y368084D01*
X1022756Y368097D01*
X1022888Y368107D01*
X1023020Y368113D01*
X1023153Y368115D01*
X1023153Y368114D02*
X1027668Y368114D01*
X1027668Y368115D02*
X1027843Y368113D01*
X1028017Y368107D01*
X1028191Y368096D01*
X1028365Y368081D01*
X1028539Y368062D01*
X1028712Y368039D01*
X1028884Y368012D01*
X1029056Y367980D01*
X1029227Y367945D01*
X1029397Y367905D01*
X1029566Y367861D01*
X1029734Y367813D01*
X1029901Y367761D01*
X1030066Y367705D01*
X1030230Y367645D01*
X1030393Y367582D01*
X1030553Y367514D01*
X1030713Y367442D01*
X1030870Y367367D01*
X1031026Y367287D01*
X1031179Y367204D01*
X1031331Y367118D01*
X1031480Y367027D01*
X1031627Y366933D01*
X1031772Y366836D01*
X1031915Y366735D01*
X1032055Y366631D01*
X1032192Y366523D01*
X1032327Y366412D01*
X1032459Y366298D01*
X1032588Y366181D01*
X1032715Y366060D01*
X1032838Y365937D01*
X1032959Y365810D01*
X1033076Y365681D01*
X1033190Y365549D01*
X1033301Y365414D01*
X1033409Y365277D01*
X1033513Y365137D01*
X1033614Y364994D01*
X1033711Y364849D01*
X1033805Y364702D01*
X1033896Y364553D01*
X1033982Y364401D01*
X1034065Y364248D01*
X1034145Y364092D01*
X1034220Y363935D01*
X1034292Y363775D01*
X1034360Y363615D01*
X1034423Y363452D01*
X1034483Y363288D01*
X1034539Y363123D01*
X1034591Y362956D01*
X1034639Y362788D01*
X1034683Y362619D01*
X1034723Y362449D01*
X1034758Y362278D01*
X1034790Y362106D01*
X1034817Y361934D01*
X1034840Y361761D01*
X1034859Y361587D01*
X1034874Y361413D01*
X1034885Y361239D01*
X1034891Y361065D01*
X1034893Y360890D01*
D12*
X215900Y571500D03*
X215900Y596900D03*
X215900Y749300D03*
X215900Y774700D03*
D13*
X266700Y939800D03*
X266700Y838200D03*
X342900Y939800D03*
X342900Y838200D03*
X419100Y939800D03*
X419100Y838200D03*
X495300Y939800D03*
X495300Y838200D03*
X304800Y254000D03*
X304800Y152400D03*
X304800Y419100D03*
X304800Y317500D03*
X241300Y419100D03*
X241300Y317500D03*
X241300Y254000D03*
X241300Y152400D03*
D14*
X70104Y-152400D02*
X56896Y-152400D01*
X56896Y-127000D02*
X70104Y-127000D01*
X70104Y-101600D02*
X56896Y-101600D01*
X56896Y-76200D02*
X70104Y-76200D01*
X70104Y-50800D02*
X56896Y-50800D01*
X56896Y38100D02*
X70104Y38100D01*
X70104Y63500D02*
X56896Y63500D01*
X56896Y88900D02*
X70104Y88900D01*
X70104Y114300D02*
X56896Y114300D01*
X56896Y139700D02*
X70104Y139700D01*
X70104Y228600D02*
X56896Y228600D01*
X56896Y254000D02*
X70104Y254000D01*
X70104Y279400D02*
X56896Y279400D01*
X56896Y304800D02*
X70104Y304800D01*
X70104Y330200D02*
X56896Y330200D01*
X56896Y355600D02*
X70104Y355600D01*
X70104Y381000D02*
X56896Y381000D01*
X56896Y406400D02*
X70104Y406400D01*
X133096Y228600D02*
X146304Y228600D01*
X146304Y254000D02*
X133096Y254000D01*
X133096Y279400D02*
X146304Y279400D01*
X146304Y304800D02*
X133096Y304800D01*
X133096Y330200D02*
X146304Y330200D01*
X146304Y355600D02*
X133096Y355600D01*
X133096Y381000D02*
X146304Y381000D01*
X146304Y406400D02*
X133096Y406400D01*
X133096Y431800D02*
X146304Y431800D01*
X146304Y457200D02*
X133096Y457200D01*
X133096Y-241300D02*
X146304Y-241300D01*
X146304Y-215900D02*
X133096Y-215900D01*
X133096Y-190500D02*
X146304Y-190500D01*
X146304Y-165100D02*
X133096Y-165100D01*
X133096Y-139700D02*
X146304Y-139700D01*
D15*
X411988Y571500D02*
X426212Y571500D01*
X426212Y596900D02*
X411988Y596900D01*
X411988Y495300D02*
X426212Y495300D01*
X426212Y520700D02*
X411988Y520700D01*
X411988Y749300D02*
X426212Y749300D01*
X426212Y774700D02*
X411988Y774700D01*
X411988Y673100D02*
X426212Y673100D01*
X426212Y698500D02*
X411988Y698500D01*
D16*
X533400Y571500D03*
X558800Y571500D03*
X533400Y546100D03*
X558800Y546100D03*
X533400Y520700D03*
X558800Y520700D03*
D15*
X388112Y393700D02*
X373888Y393700D01*
X373888Y368300D02*
X388112Y368300D01*
X388112Y342900D02*
X373888Y342900D01*
X373888Y228600D02*
X388112Y228600D01*
X388112Y203200D02*
X373888Y203200D01*
X373888Y177800D02*
X388112Y177800D01*
D17*
X800100Y-241300D03*
X800100Y-216408D03*
X800100Y-191262D03*
X800100Y-166370D03*
X800100Y-141224D03*
X800100Y-116332D03*
D18*
X444500Y406400D03*
X444500Y330200D03*
D19*
X355600Y762000D03*
X279400Y762000D03*
D12*
X508000Y330200D03*
X508000Y406400D03*
D18*
X571500Y406400D03*
X571500Y330200D03*
D12*
X444500Y165100D03*
X444500Y241300D03*
X508000Y165100D03*
X508000Y241300D03*
D18*
X571500Y241300D03*
X571500Y165100D03*
D19*
X355600Y508000D03*
X279400Y508000D03*
X355600Y685800D03*
X279400Y685800D03*
X355600Y584200D03*
X279400Y584200D03*
D17*
X673100Y673100D03*
X673100Y697992D03*
X673100Y723138D03*
X673100Y748030D03*
X546100Y673100D03*
X546100Y697992D03*
X546100Y723138D03*
X546100Y748030D03*
D12*
X215900Y495300D03*
X215900Y520700D03*
X215900Y673100D03*
X215900Y698500D03*
D20*
X76200Y558800D03*
X76200Y533908D03*
X76200Y736600D03*
X76200Y711708D03*
D17*
X736600Y444500D03*
X736600Y469392D03*
X736600Y494538D03*
X736600Y519430D03*
X736600Y544576D03*
D20*
X736600Y304800D03*
X736600Y279908D03*
D17*
X800100Y38100D03*
X800100Y62992D03*
X800100Y88138D03*
X800100Y113030D03*
X800100Y138176D03*
X800100Y163068D03*
D14*
X146304Y38100D02*
X133096Y38100D01*
X133096Y63500D02*
X146304Y63500D01*
X146304Y88900D02*
X133096Y88900D01*
X133096Y114300D02*
X146304Y114300D01*
X146304Y139700D02*
X133096Y139700D01*
D17*
X914400Y444500D03*
X914400Y469392D03*
X914400Y494538D03*
X914400Y519430D03*
X914400Y544576D03*
D20*
X850900Y304800D03*
X850900Y279908D03*
D13*
X584200Y939800D03*
X584200Y838200D03*
X660400Y939800D03*
X660400Y838200D03*
X736600Y939800D03*
X736600Y838200D03*
X812800Y939800D03*
X812800Y838200D03*
D17*
X927100Y673100D03*
X927100Y697992D03*
X927100Y723138D03*
X927100Y748030D03*
X800100Y673100D03*
X800100Y697992D03*
X800100Y723138D03*
X800100Y748030D03*
D21*
X571500Y330708D02*
X509016Y330708D01*
X508000Y330200D01*
X571500Y330200D02*
X571500Y330708D01*
X419100Y571500D02*
X281432Y571500D01*
X269240Y559308D01*
X76200Y559308D01*
X76200Y558800D01*
X509016Y166116D02*
X571500Y166116D01*
X509016Y166116D02*
X508000Y165100D01*
X571500Y165100D02*
X571500Y166116D01*
X419100Y748284D02*
X287528Y748284D01*
X276860Y737616D01*
X76200Y737616D01*
X419100Y748284D02*
X419100Y749300D01*
X76200Y737616D02*
X76200Y736600D01*
X356616Y509016D02*
X408432Y509016D01*
X419100Y519684D01*
X356616Y509016D02*
X355600Y508000D01*
X419100Y519684D02*
X419100Y520700D01*
X408432Y585216D02*
X356616Y585216D01*
X408432Y585216D02*
X419100Y595884D01*
X356616Y585216D02*
X355600Y584200D01*
X419100Y595884D02*
X419100Y596900D01*
X406908Y685800D02*
X355600Y685800D01*
X406908Y685800D02*
X419100Y697992D01*
X419100Y698500D01*
X406908Y762000D02*
X355600Y762000D01*
X406908Y762000D02*
X419100Y774192D01*
X419100Y774700D01*
X304800Y318516D02*
X242316Y318516D01*
X304800Y318516D02*
X304800Y317500D01*
X242316Y318516D02*
X241300Y317500D01*
X91948Y114300D02*
X63500Y114300D01*
X91948Y114300D02*
X130048Y152400D01*
X241300Y152400D01*
X304800Y152400D01*
X76200Y533908D02*
X88392Y546100D01*
X301752Y546100D01*
X352552Y495300D01*
X419100Y495300D01*
X381000Y393192D02*
X443484Y330708D01*
X444500Y330200D01*
X381000Y393192D02*
X381000Y393700D01*
X310642Y711708D02*
X76200Y711708D01*
X310642Y711708D02*
X348742Y673608D01*
X419100Y673608D01*
X419100Y673100D01*
X443484Y240792D02*
X393192Y240792D01*
X381000Y228600D01*
X443484Y240792D02*
X444500Y241300D01*
X266700Y495300D02*
X215900Y495300D01*
X266700Y495300D02*
X279400Y508000D01*
X266700Y673608D02*
X216408Y673608D01*
X266700Y673608D02*
X278892Y685800D01*
X216408Y673608D02*
X215900Y673100D01*
X278892Y685800D02*
X279400Y685800D01*
X214884Y649986D02*
X214884Y597408D01*
X214884Y649986D02*
X203200Y661670D01*
X203200Y686308D01*
X214884Y697992D01*
X214884Y597408D02*
X215900Y596900D01*
X214884Y697992D02*
X215900Y698500D01*
X85598Y-126492D02*
X790956Y-126492D01*
X85598Y-126492D02*
X64008Y-126492D01*
X790956Y-126492D02*
X800100Y-117348D01*
X64008Y-126492D02*
X63500Y-127000D01*
X800100Y-117348D02*
X800100Y-116332D01*
X800100Y162560D02*
X800100Y163068D01*
X800100Y162560D02*
X818388Y144272D01*
X818388Y-97536D01*
X800100Y-115824D01*
X800100Y-116332D01*
X214884Y519684D02*
X151892Y519684D01*
X39624Y407416D01*
X39624Y1270D01*
X85598Y-44704D01*
X85598Y-126492D01*
X214884Y519684D02*
X215900Y520700D01*
D22*
X421640Y546100D03*
D21*
X356870Y546100D01*
X355600Y544830D01*
D22*
X356870Y546100D03*
D21*
X571500Y559308D02*
X571500Y406400D01*
X571500Y559308D02*
X559308Y571500D01*
X558800Y571500D01*
X426212Y99568D02*
X311912Y99568D01*
X309372Y102108D01*
X426212Y99568D02*
X571500Y244856D01*
X571500Y346710D02*
X571500Y406400D01*
X571500Y346710D02*
X583184Y335026D01*
X583184Y254000D01*
X571500Y242316D01*
X571500Y244856D01*
X571500Y242316D02*
X571500Y241300D01*
D22*
X309372Y102108D03*
D21*
X63500Y-76200D02*
X62230Y-76200D01*
X31496Y-45466D01*
X31496Y424180D01*
X140208Y532892D01*
X300228Y532892D01*
X348488Y484632D01*
X446532Y484632D01*
X533400Y571500D01*
D23*
X673608Y723900D02*
X673608Y746760D01*
D21*
X673608Y723900D02*
X673100Y723138D01*
D23*
X673608Y746760D02*
X673100Y748030D01*
X673608Y697992D02*
X673608Y673608D01*
D21*
X673100Y673100D01*
D23*
X736092Y419608D02*
X736092Y304800D01*
X736092Y419608D02*
X673608Y482092D01*
X673608Y672084D01*
X736092Y304800D02*
X736600Y304800D01*
X673608Y672084D02*
X673100Y673100D01*
X673608Y697992D02*
X673608Y722376D01*
X673100Y723138D01*
X673100Y697992D02*
X673608Y697992D01*
D21*
X800100Y-140208D02*
X140208Y-140208D01*
X139700Y-139700D01*
X800100Y-140208D02*
X800100Y-141224D01*
X800100Y-166116D02*
X140208Y-166116D01*
X139700Y-165100D01*
X800100Y-166116D02*
X800100Y-166370D01*
X800100Y-190500D02*
X139700Y-190500D01*
X800100Y-190500D02*
X800100Y-191262D01*
X800100Y-216408D02*
X140208Y-216408D01*
X139700Y-215900D01*
X140208Y-240792D02*
X800100Y-240792D01*
X140208Y-240792D02*
X139700Y-241300D01*
X800100Y-240792D02*
X800100Y-241300D01*
D23*
X342900Y940308D02*
X266700Y940308D01*
D21*
X266700Y939800D01*
D23*
X342900Y940308D02*
X419100Y940308D01*
D21*
X342900Y940308D02*
X342900Y939800D01*
D23*
X419100Y940308D02*
X495300Y940308D01*
D21*
X495300Y939800D01*
X419100Y939800D02*
X419100Y940308D01*
D23*
X739140Y544576D02*
X751840Y531876D01*
X739140Y544576D02*
X736600Y544576D01*
X751840Y531876D02*
X751840Y294640D01*
X737616Y280416D01*
X736600Y279908D01*
X388620Y838200D02*
X342900Y838200D01*
X388620Y838200D02*
X528828Y697992D01*
X546100Y697992D01*
X545592Y723900D02*
X533400Y723900D01*
X419100Y838200D01*
D21*
X545592Y723900D02*
X546100Y723138D01*
D23*
X545592Y748284D02*
X545592Y787908D01*
X495300Y838200D01*
D21*
X545592Y748284D02*
X546100Y748030D01*
X507492Y406908D02*
X445008Y406908D01*
X444500Y406400D01*
X507492Y406908D02*
X508000Y406400D01*
X431292Y419100D02*
X304800Y419100D01*
X431292Y419100D02*
X443484Y406908D01*
X444500Y406400D01*
X445008Y178308D02*
X445008Y166116D01*
X445008Y178308D02*
X508000Y241300D01*
X445008Y166116D02*
X444500Y165100D01*
X368554Y189992D02*
X306070Y252476D01*
X306070Y252730D02*
X304800Y254000D01*
X306070Y252730D02*
X306070Y252476D01*
X368554Y189992D02*
X433324Y189992D01*
X445008Y178308D01*
X381000Y342900D02*
X318516Y342900D01*
X242316Y419100D01*
X241300Y419100D01*
X316992Y178308D02*
X381000Y178308D01*
X316992Y178308D02*
X241300Y254000D01*
X381000Y178308D02*
X381000Y177800D01*
X266700Y571500D02*
X215900Y571500D01*
X266700Y571500D02*
X279400Y584200D01*
X266700Y749808D02*
X216408Y749808D01*
X266700Y749808D02*
X278892Y762000D01*
X216408Y749808D02*
X215900Y749300D01*
X278892Y762000D02*
X279400Y762000D01*
X343662Y127254D02*
X426212Y127254D01*
X343662Y127254D02*
X324612Y108204D01*
X426212Y127254D02*
X518160Y219202D01*
X518160Y299974D01*
X494538Y323596D01*
X494538Y375158D01*
X533400Y414020D01*
X533400Y520700D01*
X533400Y531368D01*
D22*
X324612Y108204D03*
D21*
X139700Y228600D02*
X63500Y228600D01*
X64008Y254508D02*
X138684Y254508D01*
X64008Y254508D02*
X63500Y254000D01*
X138684Y254508D02*
X139700Y254000D01*
X138684Y280416D02*
X64008Y280416D01*
X63500Y279400D01*
X138684Y280416D02*
X139700Y279400D01*
X139700Y304800D02*
X63500Y304800D01*
X64008Y330708D02*
X138684Y330708D01*
X64008Y330708D02*
X63500Y330200D01*
X138684Y330708D02*
X139700Y330200D01*
X138684Y356616D02*
X64008Y356616D01*
X63500Y355600D01*
X138684Y356616D02*
X139700Y355600D01*
X139700Y381000D02*
X63500Y381000D01*
X64008Y406908D02*
X138684Y406908D01*
X64008Y406908D02*
X63500Y406400D01*
X138684Y406908D02*
X139700Y406400D01*
X140208Y432816D02*
X420624Y432816D01*
X533400Y545592D01*
X140208Y432816D02*
X139700Y431800D01*
X533400Y545592D02*
X533400Y546100D01*
X428498Y457200D02*
X139700Y457200D01*
X428498Y457200D02*
X528828Y557530D01*
X547370Y557530D01*
X558800Y546100D01*
X800100Y88392D02*
X140208Y88392D01*
X139700Y88900D01*
X800100Y88392D02*
X800100Y88138D01*
X800100Y64008D02*
X140208Y64008D01*
X139700Y63500D01*
X800100Y64008D02*
X800100Y62992D01*
X800100Y38100D02*
X139700Y38100D01*
D23*
X800100Y559308D02*
X800100Y673100D01*
X800100Y559308D02*
X914400Y445008D01*
X914400Y444500D01*
X635508Y838200D02*
X584200Y838200D01*
X635508Y838200D02*
X800100Y673608D01*
D21*
X800100Y673100D01*
D23*
X800100Y697992D02*
X659892Y838200D01*
D21*
X660400Y838200D01*
D23*
X914400Y469900D02*
X914400Y469392D01*
X914400Y469900D02*
X818388Y565912D01*
X818388Y679704D01*
X800100Y697992D01*
X800100Y723138D02*
X799846Y723138D01*
X737616Y785368D01*
X737616Y838200D01*
D21*
X736600Y838200D01*
D23*
X800100Y826008D02*
X800100Y748030D01*
X800100Y826008D02*
X812292Y838200D01*
D21*
X812800Y838200D01*
D23*
X914400Y520192D02*
X914400Y519430D01*
X914400Y520192D02*
X837946Y596646D01*
X837946Y708914D01*
X800100Y746760D01*
D21*
X800100Y748030D01*
D23*
X659892Y940308D02*
X585216Y940308D01*
D21*
X584200Y939800D01*
X659892Y940308D02*
X660400Y939800D01*
D23*
X661416Y940308D02*
X736092Y940308D01*
D21*
X736600Y939800D01*
X661416Y940308D02*
X660400Y939800D01*
D23*
X737616Y940308D02*
X812292Y940308D01*
D21*
X812800Y939800D01*
X737616Y940308D02*
X736600Y939800D01*
D23*
X813816Y938784D02*
X813816Y858520D01*
X911860Y760476D01*
X911860Y547116D01*
X914400Y544576D01*
D21*
X813816Y938784D02*
X812800Y939800D01*
D23*
X928116Y746760D02*
X928116Y723900D01*
D21*
X927100Y723138D01*
D23*
X928116Y746760D02*
X927100Y748030D01*
X928116Y697992D02*
X928116Y673608D01*
D21*
X927100Y673100D01*
D23*
X851916Y359664D02*
X851916Y304800D01*
X851916Y359664D02*
X944372Y452120D01*
X944372Y655828D02*
X927100Y673100D01*
X944372Y655828D02*
X944372Y452120D01*
D21*
X851916Y304800D02*
X850900Y304800D01*
D23*
X928116Y697992D02*
X928116Y722376D01*
X927100Y723138D01*
X927100Y697992D02*
X928116Y697992D01*
M02*
