G04 EAGLE Gerber RS-274X export*
G75*
%MOMM*%
%FSLAX34Y34*%
%LPD*%
%INBottom Copper*%
%IPPOS*%
%AMOC8*
5,1,8,0,0,1.08239X$1,22.5*%
G01*
%ADD10P,1.429621X8X112.500000*%
%ADD11C,1.676400*%
%ADD12C,1.320800*%
%ADD13C,1.422400*%
%ADD14P,1.539592X8X292.500000*%
%ADD15C,1.498600*%
%ADD16P,1.429621X8X292.500000*%
%ADD17P,1.429621X8X202.500000*%
%ADD18C,1.562100*%
%ADD19C,0.406400*%
%ADD20C,0.756400*%
%ADD21C,0.762000*%
%ADD22C,0.609600*%


D10*
X215900Y571500D03*
X215900Y596900D03*
X215900Y749300D03*
X215900Y774700D03*
D11*
X266700Y939800D03*
X266700Y838200D03*
X342900Y939800D03*
X342900Y838200D03*
X419100Y939800D03*
X419100Y838200D03*
X495300Y939800D03*
X495300Y838200D03*
X304800Y254000D03*
X304800Y152400D03*
X304800Y419100D03*
X304800Y317500D03*
X241300Y419100D03*
X241300Y317500D03*
X241300Y254000D03*
X241300Y152400D03*
D12*
X70104Y-152400D02*
X56896Y-152400D01*
X56896Y-127000D02*
X70104Y-127000D01*
X70104Y-101600D02*
X56896Y-101600D01*
X56896Y-76200D02*
X70104Y-76200D01*
X70104Y-50800D02*
X56896Y-50800D01*
X56896Y38100D02*
X70104Y38100D01*
X70104Y63500D02*
X56896Y63500D01*
X56896Y88900D02*
X70104Y88900D01*
X70104Y114300D02*
X56896Y114300D01*
X56896Y139700D02*
X70104Y139700D01*
X70104Y228600D02*
X56896Y228600D01*
X56896Y254000D02*
X70104Y254000D01*
X70104Y279400D02*
X56896Y279400D01*
X56896Y304800D02*
X70104Y304800D01*
X70104Y330200D02*
X56896Y330200D01*
X56896Y355600D02*
X70104Y355600D01*
X70104Y381000D02*
X56896Y381000D01*
X56896Y406400D02*
X70104Y406400D01*
X133096Y228600D02*
X146304Y228600D01*
X146304Y254000D02*
X133096Y254000D01*
X133096Y279400D02*
X146304Y279400D01*
X146304Y304800D02*
X133096Y304800D01*
X133096Y330200D02*
X146304Y330200D01*
X146304Y355600D02*
X133096Y355600D01*
X133096Y381000D02*
X146304Y381000D01*
X146304Y406400D02*
X133096Y406400D01*
X133096Y431800D02*
X146304Y431800D01*
X146304Y457200D02*
X133096Y457200D01*
X133096Y-241300D02*
X146304Y-241300D01*
X146304Y-215900D02*
X133096Y-215900D01*
X133096Y-190500D02*
X146304Y-190500D01*
X146304Y-165100D02*
X133096Y-165100D01*
X133096Y-139700D02*
X146304Y-139700D01*
D13*
X411988Y571500D02*
X426212Y571500D01*
X426212Y596900D02*
X411988Y596900D01*
X411988Y495300D02*
X426212Y495300D01*
X426212Y520700D02*
X411988Y520700D01*
X411988Y749300D02*
X426212Y749300D01*
X426212Y774700D02*
X411988Y774700D01*
X411988Y673100D02*
X426212Y673100D01*
X426212Y698500D02*
X411988Y698500D01*
D14*
X533400Y571500D03*
X558800Y571500D03*
X533400Y546100D03*
X558800Y546100D03*
X533400Y520700D03*
X558800Y520700D03*
D13*
X388112Y393700D02*
X373888Y393700D01*
X373888Y368300D02*
X388112Y368300D01*
X388112Y342900D02*
X373888Y342900D01*
X373888Y228600D02*
X388112Y228600D01*
X388112Y203200D02*
X373888Y203200D01*
X373888Y177800D02*
X388112Y177800D01*
D15*
X800100Y-241300D03*
X800100Y-216408D03*
X800100Y-191262D03*
X800100Y-166370D03*
X800100Y-141224D03*
X800100Y-116332D03*
D16*
X444500Y406400D03*
X444500Y330200D03*
D17*
X355600Y762000D03*
X279400Y762000D03*
D10*
X508000Y330200D03*
X508000Y406400D03*
D16*
X571500Y406400D03*
X571500Y330200D03*
D10*
X444500Y165100D03*
X444500Y241300D03*
X508000Y165100D03*
X508000Y241300D03*
D16*
X571500Y241300D03*
X571500Y165100D03*
D17*
X355600Y508000D03*
X279400Y508000D03*
X355600Y685800D03*
X279400Y685800D03*
X355600Y584200D03*
X279400Y584200D03*
D15*
X673100Y673100D03*
X673100Y697992D03*
X673100Y723138D03*
X673100Y748030D03*
X546100Y673100D03*
X546100Y697992D03*
X546100Y723138D03*
X546100Y748030D03*
D10*
X215900Y495300D03*
X215900Y520700D03*
X215900Y673100D03*
X215900Y698500D03*
D18*
X76200Y558800D03*
X76200Y533908D03*
X76200Y736600D03*
X76200Y711708D03*
D15*
X736600Y444500D03*
X736600Y469392D03*
X736600Y494538D03*
X736600Y519430D03*
X736600Y544576D03*
D18*
X736600Y304800D03*
X736600Y279908D03*
D15*
X800100Y38100D03*
X800100Y62992D03*
X800100Y88138D03*
X800100Y113030D03*
X800100Y138176D03*
X800100Y163068D03*
D12*
X146304Y38100D02*
X133096Y38100D01*
X133096Y63500D02*
X146304Y63500D01*
X146304Y88900D02*
X133096Y88900D01*
X133096Y114300D02*
X146304Y114300D01*
X146304Y139700D02*
X133096Y139700D01*
D15*
X914400Y444500D03*
X914400Y469392D03*
X914400Y494538D03*
X914400Y519430D03*
X914400Y544576D03*
D18*
X850900Y304800D03*
X850900Y279908D03*
D11*
X584200Y939800D03*
X584200Y838200D03*
X660400Y939800D03*
X660400Y838200D03*
X736600Y939800D03*
X736600Y838200D03*
X812800Y939800D03*
X812800Y838200D03*
D15*
X927100Y673100D03*
X927100Y697992D03*
X927100Y723138D03*
X927100Y748030D03*
X800100Y673100D03*
X800100Y697992D03*
X800100Y723138D03*
X800100Y748030D03*
D19*
X62484Y39116D02*
X62484Y38100D01*
X62484Y39116D02*
X44704Y56896D01*
X44704Y526288D01*
X76200Y557784D01*
X63500Y38100D02*
X62484Y38100D01*
X76200Y557784D02*
X76200Y558800D01*
X89408Y114808D02*
X63500Y88900D01*
X89408Y114808D02*
X89408Y722884D01*
X76200Y736092D01*
X76200Y736600D01*
X64008Y67564D02*
X64008Y64008D01*
X64008Y67564D02*
X120904Y124460D01*
X120904Y186944D01*
X240792Y306832D01*
X240792Y316992D01*
X64008Y64008D02*
X63500Y63500D01*
X240792Y316992D02*
X241300Y317500D01*
X381000Y368300D02*
X381000Y371856D01*
X419100Y409956D01*
X419100Y495300D01*
X381000Y203200D02*
X379984Y203200D01*
X360426Y222758D01*
X360426Y499110D01*
X399796Y538480D01*
X399796Y652780D01*
X419100Y672084D01*
X419100Y673100D01*
X216408Y556768D02*
X216408Y540258D01*
X216408Y521208D01*
X216408Y556768D02*
X228092Y568452D01*
X228092Y584200D01*
X216408Y595884D01*
X216408Y521208D02*
X215900Y520700D01*
X216408Y595884D02*
X215900Y596900D01*
X214884Y699516D02*
X214884Y731266D01*
X205740Y740410D01*
X205740Y765048D01*
X214884Y774192D01*
X214884Y699516D02*
X215900Y698500D01*
X214884Y774192D02*
X215900Y774700D01*
X533400Y495300D02*
X558800Y520700D01*
X533400Y495300D02*
X494030Y495300D01*
X443230Y546100D01*
X421640Y546100D01*
D20*
X421640Y546100D03*
X356870Y546100D03*
D19*
X355600Y546100D01*
X349758Y540258D01*
X216408Y540258D01*
X156972Y-50292D02*
X64008Y-50292D01*
X156972Y-50292D02*
X309372Y102108D01*
X64008Y-50292D02*
X63500Y-50800D01*
D20*
X309372Y102108D03*
D21*
X736600Y444500D02*
X547116Y633984D01*
X547116Y672084D01*
D19*
X546100Y673100D01*
D21*
X304292Y838200D02*
X266700Y838200D01*
X304292Y838200D02*
X468884Y673608D01*
X545592Y673608D01*
D19*
X546100Y673100D01*
D21*
X495300Y866140D02*
X495300Y939800D01*
X495300Y866140D02*
X648970Y712470D01*
X648970Y674624D01*
X736600Y586994D01*
X736600Y544576D01*
X736092Y469900D02*
X736092Y469392D01*
X736092Y469900D02*
X561340Y644652D01*
X561340Y683768D01*
X547116Y697992D01*
X736092Y469392D02*
X736600Y469392D01*
D19*
X547116Y697992D02*
X546100Y697992D01*
D21*
X737616Y495808D02*
X737616Y495300D01*
X737616Y495808D02*
X751840Y510032D01*
X751840Y531876D01*
X711200Y571546D02*
X572008Y711754D01*
X711200Y546100D02*
X725424Y531876D01*
X711200Y546100D02*
X711200Y571546D01*
D22*
X725424Y531876D02*
X751840Y531876D01*
D21*
X572008Y711754D02*
X572008Y749808D01*
X557784Y764032D01*
X528574Y764032D01*
X528574Y740918D01*
X545592Y723900D01*
X736600Y494538D02*
X737616Y495300D01*
X546100Y723138D02*
X545592Y723900D01*
X561340Y700353D02*
X698500Y558800D01*
X698500Y533400D01*
X718820Y513080D01*
X730250Y513080D02*
X736600Y519430D01*
X730250Y513080D02*
X718820Y513080D01*
X561340Y700353D02*
X561340Y732536D01*
X547116Y746760D01*
D19*
X546100Y748030D01*
X324612Y108204D02*
X324612Y89154D01*
X83058Y-152400D01*
X63500Y-152400D01*
D20*
X324612Y108204D03*
D19*
X140208Y138684D02*
X800100Y138684D01*
X140208Y138684D02*
X139700Y139700D01*
X800100Y138684D02*
X800100Y138176D01*
X800100Y116840D02*
X142240Y116840D01*
X139700Y114300D01*
X800100Y113030D02*
X800100Y116840D01*
D21*
X914654Y494538D02*
X928878Y508762D01*
X914654Y494538D02*
X914400Y494538D01*
X928878Y508762D02*
X928878Y593598D01*
X800100Y722376D01*
D19*
X800100Y723138D01*
D21*
X914146Y544576D02*
X914400Y544576D01*
X914146Y544576D02*
X866140Y496570D01*
X866140Y294640D01*
X851916Y280416D01*
D19*
X850900Y279908D01*
M02*
