G04 EAGLE Gerber RS-274X export*
G75*
%MOMM*%
%FSLAX34Y34*%
%LPD*%
%IN*%
%IPPOS*%
%AMOC8*
5,1,8,0,0,1.08239X$1,22.5*%
G01*
%ADD10C,0.254000*%


D10*
X0Y-342900D02*
X1003100Y-342900D01*
X1003100Y1000000D01*
X0Y1000000D01*
X0Y-342900D01*
X80000Y939260D02*
X79929Y938182D01*
X79788Y937111D01*
X79578Y936051D01*
X79298Y935008D01*
X78951Y933985D01*
X78537Y932987D01*
X78060Y932018D01*
X77519Y931082D01*
X76919Y930184D01*
X76262Y929327D01*
X75549Y928515D01*
X74785Y927751D01*
X73973Y927039D01*
X73116Y926381D01*
X72218Y925781D01*
X71282Y925241D01*
X70313Y924763D01*
X69315Y924349D01*
X68292Y924002D01*
X67249Y923722D01*
X66189Y923512D01*
X65118Y923371D01*
X64040Y923300D01*
X62960Y923300D01*
X61882Y923371D01*
X60811Y923512D01*
X59751Y923722D01*
X58708Y924002D01*
X57685Y924349D01*
X56687Y924763D01*
X55718Y925241D01*
X54782Y925781D01*
X53884Y926381D01*
X53027Y927039D01*
X52215Y927751D01*
X51451Y928515D01*
X50739Y929327D01*
X50081Y930184D01*
X49481Y931082D01*
X48941Y932018D01*
X48463Y932987D01*
X48049Y933985D01*
X47702Y935008D01*
X47422Y936051D01*
X47212Y937111D01*
X47071Y938182D01*
X47000Y939260D01*
X47000Y940340D01*
X47071Y941418D01*
X47212Y942489D01*
X47422Y943549D01*
X47702Y944592D01*
X48049Y945615D01*
X48463Y946613D01*
X48941Y947582D01*
X49481Y948518D01*
X50081Y949416D01*
X50739Y950273D01*
X51451Y951085D01*
X52215Y951849D01*
X53027Y952562D01*
X53884Y953219D01*
X54782Y953819D01*
X55718Y954360D01*
X56687Y954837D01*
X57685Y955251D01*
X58708Y955598D01*
X59751Y955878D01*
X60811Y956088D01*
X61882Y956229D01*
X62960Y956300D01*
X64040Y956300D01*
X65118Y956229D01*
X66189Y956088D01*
X67249Y955878D01*
X68292Y955598D01*
X69315Y955251D01*
X70313Y954837D01*
X71282Y954360D01*
X72218Y953819D01*
X73116Y953219D01*
X73973Y952562D01*
X74785Y951849D01*
X75549Y951085D01*
X76262Y950273D01*
X76919Y949416D01*
X77519Y948518D01*
X78060Y947582D01*
X78537Y946613D01*
X78951Y945615D01*
X79298Y944592D01*
X79578Y943549D01*
X79788Y942489D01*
X79929Y941418D01*
X80000Y940340D01*
X80000Y939260D01*
X956300Y939260D02*
X956229Y938182D01*
X956088Y937111D01*
X955878Y936051D01*
X955598Y935008D01*
X955251Y933985D01*
X954837Y932987D01*
X954360Y932018D01*
X953819Y931082D01*
X953219Y930184D01*
X952562Y929327D01*
X951849Y928515D01*
X951085Y927751D01*
X950273Y927039D01*
X949416Y926381D01*
X948518Y925781D01*
X947582Y925241D01*
X946613Y924763D01*
X945615Y924349D01*
X944592Y924002D01*
X943549Y923722D01*
X942489Y923512D01*
X941418Y923371D01*
X940340Y923300D01*
X939260Y923300D01*
X938182Y923371D01*
X937111Y923512D01*
X936051Y923722D01*
X935008Y924002D01*
X933985Y924349D01*
X932987Y924763D01*
X932018Y925241D01*
X931082Y925781D01*
X930184Y926381D01*
X929327Y927039D01*
X928515Y927751D01*
X927751Y928515D01*
X927039Y929327D01*
X926381Y930184D01*
X925781Y931082D01*
X925241Y932018D01*
X924763Y932987D01*
X924349Y933985D01*
X924002Y935008D01*
X923722Y936051D01*
X923512Y937111D01*
X923371Y938182D01*
X923300Y939260D01*
X923300Y940340D01*
X923371Y941418D01*
X923512Y942489D01*
X923722Y943549D01*
X924002Y944592D01*
X924349Y945615D01*
X924763Y946613D01*
X925241Y947582D01*
X925781Y948518D01*
X926381Y949416D01*
X927039Y950273D01*
X927751Y951085D01*
X928515Y951849D01*
X929327Y952562D01*
X930184Y953219D01*
X931082Y953819D01*
X932018Y954360D01*
X932987Y954837D01*
X933985Y955251D01*
X935008Y955598D01*
X936051Y955878D01*
X937111Y956088D01*
X938182Y956229D01*
X939260Y956300D01*
X940340Y956300D01*
X941418Y956229D01*
X942489Y956088D01*
X943549Y955878D01*
X944592Y955598D01*
X945615Y955251D01*
X946613Y954837D01*
X947582Y954360D01*
X948518Y953819D01*
X949416Y953219D01*
X950273Y952562D01*
X951085Y951849D01*
X951849Y951085D01*
X952562Y950273D01*
X953219Y949416D01*
X953819Y948518D01*
X954360Y947582D01*
X954837Y946613D01*
X955251Y945615D01*
X955598Y944592D01*
X955878Y943549D01*
X956088Y942489D01*
X956229Y941418D01*
X956300Y940340D01*
X956300Y939260D01*
X80000Y-279940D02*
X79929Y-281018D01*
X79788Y-282089D01*
X79578Y-283149D01*
X79298Y-284192D01*
X78951Y-285215D01*
X78537Y-286213D01*
X78060Y-287182D01*
X77519Y-288118D01*
X76919Y-289016D01*
X76262Y-289873D01*
X75549Y-290685D01*
X74785Y-291449D01*
X73973Y-292162D01*
X73116Y-292819D01*
X72218Y-293419D01*
X71282Y-293960D01*
X70313Y-294437D01*
X69315Y-294851D01*
X68292Y-295198D01*
X67249Y-295478D01*
X66189Y-295688D01*
X65118Y-295829D01*
X64040Y-295900D01*
X62960Y-295900D01*
X61882Y-295829D01*
X60811Y-295688D01*
X59751Y-295478D01*
X58708Y-295198D01*
X57685Y-294851D01*
X56687Y-294437D01*
X55718Y-293960D01*
X54782Y-293419D01*
X53884Y-292819D01*
X53027Y-292162D01*
X52215Y-291449D01*
X51451Y-290685D01*
X50739Y-289873D01*
X50081Y-289016D01*
X49481Y-288118D01*
X48941Y-287182D01*
X48463Y-286213D01*
X48049Y-285215D01*
X47702Y-284192D01*
X47422Y-283149D01*
X47212Y-282089D01*
X47071Y-281018D01*
X47000Y-279940D01*
X47000Y-278860D01*
X47071Y-277782D01*
X47212Y-276711D01*
X47422Y-275651D01*
X47702Y-274608D01*
X48049Y-273585D01*
X48463Y-272587D01*
X48941Y-271618D01*
X49481Y-270682D01*
X50081Y-269784D01*
X50739Y-268927D01*
X51451Y-268115D01*
X52215Y-267351D01*
X53027Y-266639D01*
X53884Y-265981D01*
X54782Y-265381D01*
X55718Y-264841D01*
X56687Y-264363D01*
X57685Y-263949D01*
X58708Y-263602D01*
X59751Y-263322D01*
X60811Y-263112D01*
X61882Y-262971D01*
X62960Y-262900D01*
X64040Y-262900D01*
X65118Y-262971D01*
X66189Y-263112D01*
X67249Y-263322D01*
X68292Y-263602D01*
X69315Y-263949D01*
X70313Y-264363D01*
X71282Y-264841D01*
X72218Y-265381D01*
X73116Y-265981D01*
X73973Y-266639D01*
X74785Y-267351D01*
X75549Y-268115D01*
X76262Y-268927D01*
X76919Y-269784D01*
X77519Y-270682D01*
X78060Y-271618D01*
X78537Y-272587D01*
X78951Y-273585D01*
X79298Y-274608D01*
X79578Y-275651D01*
X79788Y-276711D01*
X79929Y-277782D01*
X80000Y-278860D01*
X80000Y-279940D01*
X956300Y278860D02*
X956229Y277782D01*
X956088Y276711D01*
X955878Y275651D01*
X955598Y274608D01*
X955251Y273585D01*
X954837Y272587D01*
X954360Y271618D01*
X953819Y270682D01*
X953219Y269784D01*
X952562Y268927D01*
X951849Y268115D01*
X951085Y267351D01*
X950273Y266639D01*
X949416Y265981D01*
X948518Y265381D01*
X947582Y264841D01*
X946613Y264363D01*
X945615Y263949D01*
X944592Y263602D01*
X943549Y263322D01*
X942489Y263112D01*
X941418Y262971D01*
X940340Y262900D01*
X939260Y262900D01*
X938182Y262971D01*
X937111Y263112D01*
X936051Y263322D01*
X935008Y263602D01*
X933985Y263949D01*
X932987Y264363D01*
X932018Y264841D01*
X931082Y265381D01*
X930184Y265981D01*
X929327Y266639D01*
X928515Y267351D01*
X927751Y268115D01*
X927039Y268927D01*
X926381Y269784D01*
X925781Y270682D01*
X925241Y271618D01*
X924763Y272587D01*
X924349Y273585D01*
X924002Y274608D01*
X923722Y275651D01*
X923512Y276711D01*
X923371Y277782D01*
X923300Y278860D01*
X923300Y279940D01*
X923371Y281018D01*
X923512Y282089D01*
X923722Y283149D01*
X924002Y284192D01*
X924349Y285215D01*
X924763Y286213D01*
X925241Y287182D01*
X925781Y288118D01*
X926381Y289016D01*
X927039Y289873D01*
X927751Y290685D01*
X928515Y291449D01*
X929327Y292162D01*
X930184Y292819D01*
X931082Y293419D01*
X932018Y293960D01*
X932987Y294437D01*
X933985Y294851D01*
X935008Y295198D01*
X936051Y295478D01*
X937111Y295688D01*
X938182Y295829D01*
X939260Y295900D01*
X940340Y295900D01*
X941418Y295829D01*
X942489Y295688D01*
X943549Y295478D01*
X944592Y295198D01*
X945615Y294851D01*
X946613Y294437D01*
X947582Y293960D01*
X948518Y293419D01*
X949416Y292819D01*
X950273Y292162D01*
X951085Y291449D01*
X951849Y290685D01*
X952562Y289873D01*
X953219Y289016D01*
X953819Y288118D01*
X954360Y287182D01*
X954837Y286213D01*
X955251Y285215D01*
X955598Y284192D01*
X955878Y283149D01*
X956088Y282089D01*
X956229Y281018D01*
X956300Y279940D01*
X956300Y278860D01*
X943600Y-267240D02*
X943529Y-268318D01*
X943388Y-269389D01*
X943178Y-270449D01*
X942898Y-271492D01*
X942551Y-272515D01*
X942137Y-273513D01*
X941660Y-274482D01*
X941119Y-275418D01*
X940519Y-276316D01*
X939862Y-277173D01*
X939149Y-277985D01*
X938385Y-278749D01*
X937573Y-279462D01*
X936716Y-280119D01*
X935818Y-280719D01*
X934882Y-281260D01*
X933913Y-281737D01*
X932915Y-282151D01*
X931892Y-282498D01*
X930849Y-282778D01*
X929789Y-282988D01*
X928718Y-283129D01*
X927640Y-283200D01*
X926560Y-283200D01*
X925482Y-283129D01*
X924411Y-282988D01*
X923351Y-282778D01*
X922308Y-282498D01*
X921285Y-282151D01*
X920287Y-281737D01*
X919318Y-281260D01*
X918382Y-280719D01*
X917484Y-280119D01*
X916627Y-279462D01*
X915815Y-278749D01*
X915051Y-277985D01*
X914339Y-277173D01*
X913681Y-276316D01*
X913081Y-275418D01*
X912541Y-274482D01*
X912063Y-273513D01*
X911649Y-272515D01*
X911302Y-271492D01*
X911022Y-270449D01*
X910812Y-269389D01*
X910671Y-268318D01*
X910600Y-267240D01*
X910600Y-266160D01*
X910671Y-265082D01*
X910812Y-264011D01*
X911022Y-262951D01*
X911302Y-261908D01*
X911649Y-260885D01*
X912063Y-259887D01*
X912541Y-258918D01*
X913081Y-257982D01*
X913681Y-257084D01*
X914339Y-256227D01*
X915051Y-255415D01*
X915815Y-254651D01*
X916627Y-253939D01*
X917484Y-253281D01*
X918382Y-252681D01*
X919318Y-252141D01*
X920287Y-251663D01*
X921285Y-251249D01*
X922308Y-250902D01*
X923351Y-250622D01*
X924411Y-250412D01*
X925482Y-250271D01*
X926560Y-250200D01*
X927640Y-250200D01*
X928718Y-250271D01*
X929789Y-250412D01*
X930849Y-250622D01*
X931892Y-250902D01*
X932915Y-251249D01*
X933913Y-251663D01*
X934882Y-252141D01*
X935818Y-252681D01*
X936716Y-253281D01*
X937573Y-253939D01*
X938385Y-254651D01*
X939149Y-255415D01*
X939862Y-256227D01*
X940519Y-257084D01*
X941119Y-257982D01*
X941660Y-258918D01*
X942137Y-259887D01*
X942551Y-260885D01*
X942898Y-261908D01*
X943178Y-262951D01*
X943388Y-264011D01*
X943529Y-265082D01*
X943600Y-266160D01*
X943600Y-267240D01*
M02*
