G04 EAGLE Gerber RS-274X export*
G75*
%MOMM*%
%FSLAX34Y34*%
%LPD*%
%INSoldermask Top*%
%IPPOS*%
%AMOC8*
5,1,8,0,0,1.08239X$1,22.5*%
G01*
%ADD10P,1.649562X8X112.500000*%
%ADD11C,1.879600*%
%ADD12C,1.524000*%
%ADD13C,1.625600*%
%ADD14P,1.759533X8X292.500000*%
%ADD15C,1.701800*%
%ADD16P,1.649562X8X292.500000*%
%ADD17P,1.649562X8X202.500000*%
%ADD18C,1.765300*%
%ADD19C,3.503200*%
%ADD20C,0.959600*%


D10*
X215900Y571500D03*
X215900Y596900D03*
X215900Y749300D03*
X215900Y774700D03*
D11*
X266700Y939800D03*
X266700Y838200D03*
X342900Y939800D03*
X342900Y838200D03*
X419100Y939800D03*
X419100Y838200D03*
X495300Y939800D03*
X495300Y838200D03*
X304800Y254000D03*
X304800Y152400D03*
X304800Y419100D03*
X304800Y317500D03*
X241300Y419100D03*
X241300Y317500D03*
X241300Y254000D03*
X241300Y152400D03*
D12*
X70104Y-152400D02*
X56896Y-152400D01*
X56896Y-127000D02*
X70104Y-127000D01*
X70104Y-101600D02*
X56896Y-101600D01*
X56896Y-76200D02*
X70104Y-76200D01*
X70104Y-50800D02*
X56896Y-50800D01*
X56896Y38100D02*
X70104Y38100D01*
X70104Y63500D02*
X56896Y63500D01*
X56896Y88900D02*
X70104Y88900D01*
X70104Y114300D02*
X56896Y114300D01*
X56896Y139700D02*
X70104Y139700D01*
X70104Y228600D02*
X56896Y228600D01*
X56896Y254000D02*
X70104Y254000D01*
X70104Y279400D02*
X56896Y279400D01*
X56896Y304800D02*
X70104Y304800D01*
X70104Y330200D02*
X56896Y330200D01*
X56896Y355600D02*
X70104Y355600D01*
X70104Y381000D02*
X56896Y381000D01*
X56896Y406400D02*
X70104Y406400D01*
X133096Y228600D02*
X146304Y228600D01*
X146304Y254000D02*
X133096Y254000D01*
X133096Y279400D02*
X146304Y279400D01*
X146304Y304800D02*
X133096Y304800D01*
X133096Y330200D02*
X146304Y330200D01*
X146304Y355600D02*
X133096Y355600D01*
X133096Y381000D02*
X146304Y381000D01*
X146304Y406400D02*
X133096Y406400D01*
X133096Y431800D02*
X146304Y431800D01*
X146304Y457200D02*
X133096Y457200D01*
X133096Y-241300D02*
X146304Y-241300D01*
X146304Y-215900D02*
X133096Y-215900D01*
X133096Y-190500D02*
X146304Y-190500D01*
X146304Y-165100D02*
X133096Y-165100D01*
X133096Y-139700D02*
X146304Y-139700D01*
D13*
X411988Y571500D02*
X426212Y571500D01*
X426212Y596900D02*
X411988Y596900D01*
X411988Y495300D02*
X426212Y495300D01*
X426212Y520700D02*
X411988Y520700D01*
X411988Y749300D02*
X426212Y749300D01*
X426212Y774700D02*
X411988Y774700D01*
X411988Y673100D02*
X426212Y673100D01*
X426212Y698500D02*
X411988Y698500D01*
D14*
X533400Y571500D03*
X558800Y571500D03*
X533400Y546100D03*
X558800Y546100D03*
X533400Y520700D03*
X558800Y520700D03*
D13*
X388112Y393700D02*
X373888Y393700D01*
X373888Y368300D02*
X388112Y368300D01*
X388112Y342900D02*
X373888Y342900D01*
X373888Y228600D02*
X388112Y228600D01*
X388112Y203200D02*
X373888Y203200D01*
X373888Y177800D02*
X388112Y177800D01*
D15*
X800100Y-241300D03*
X800100Y-216408D03*
X800100Y-191262D03*
X800100Y-166370D03*
X800100Y-141224D03*
X800100Y-116332D03*
D16*
X444500Y406400D03*
X444500Y330200D03*
D17*
X355600Y762000D03*
X279400Y762000D03*
D10*
X508000Y330200D03*
X508000Y406400D03*
D16*
X571500Y406400D03*
X571500Y330200D03*
D10*
X444500Y165100D03*
X444500Y241300D03*
X508000Y165100D03*
X508000Y241300D03*
D16*
X571500Y241300D03*
X571500Y165100D03*
D17*
X355600Y508000D03*
X279400Y508000D03*
X355600Y685800D03*
X279400Y685800D03*
X355600Y584200D03*
X279400Y584200D03*
D15*
X673100Y673100D03*
X673100Y697992D03*
X673100Y723138D03*
X673100Y748030D03*
X546100Y673100D03*
X546100Y697992D03*
X546100Y723138D03*
X546100Y748030D03*
D10*
X215900Y495300D03*
X215900Y520700D03*
X215900Y673100D03*
X215900Y698500D03*
D18*
X76200Y558800D03*
X76200Y533908D03*
X76200Y736600D03*
X76200Y711708D03*
D15*
X736600Y444500D03*
X736600Y469392D03*
X736600Y494538D03*
X736600Y519430D03*
X736600Y544576D03*
D18*
X736600Y304800D03*
X736600Y279908D03*
D15*
X800100Y38100D03*
X800100Y62992D03*
X800100Y88138D03*
X800100Y113030D03*
X800100Y138176D03*
X800100Y163068D03*
D12*
X146304Y38100D02*
X133096Y38100D01*
X133096Y63500D02*
X146304Y63500D01*
X146304Y88900D02*
X133096Y88900D01*
X133096Y114300D02*
X146304Y114300D01*
X146304Y139700D02*
X133096Y139700D01*
D19*
X63500Y939800D03*
X939800Y939800D03*
X63500Y-279400D03*
X939800Y279400D03*
D15*
X914400Y444500D03*
X914400Y469392D03*
X914400Y494538D03*
X914400Y519430D03*
X914400Y544576D03*
D18*
X850900Y304800D03*
X850900Y279908D03*
D11*
X584200Y939800D03*
X584200Y838200D03*
X660400Y939800D03*
X660400Y838200D03*
X736600Y939800D03*
X736600Y838200D03*
X812800Y939800D03*
X812800Y838200D03*
D15*
X927100Y673100D03*
X927100Y697992D03*
X927100Y723138D03*
X927100Y748030D03*
X800100Y673100D03*
X800100Y697992D03*
X800100Y723138D03*
X800100Y748030D03*
D19*
X927100Y-266700D03*
D20*
X421640Y546100D03*
X356870Y546100D03*
X309372Y102108D03*
X324612Y108204D03*
M02*
