M48
;GenerationSoftware,Autodesk,EAGLE,9.6.2*%
;CreationDate,2021-12-21T04:25:32Z*%
FMAT,2
ICI,OFF
METRIC,TZ,000.000
T7C0.350
T6C0.813
T5C0.914
T4C0.991
T3C1.041
T2C1.118
T1C3.300
%
G90
M71
T1
X6350Y93980
X93980Y93980
X6350Y-27940
X93980Y27940
X92710Y-26670
T2
X49530Y83820
X66040Y83820
X66040Y93980
X58420Y83820
X58420Y93980
X81280Y83820
X73660Y83820
X73660Y93980
X26670Y93980
X26670Y83820
X34290Y93980
X34290Y83820
X41910Y93980
X41910Y83820
X49530Y93980
X81280Y93980
X30480Y25400
X30480Y15240
X30480Y41910
X30480Y31750
X24130Y41910
X24130Y31750
X24130Y25400
X24130Y15240
T3
X85090Y27991
X85090Y30480
X7620Y73660
X73660Y27991
X73660Y30480
X7620Y71171
X7620Y53391
X7620Y55880
T4
X91440Y54458
X91440Y49454
X91440Y51943
X91440Y46939
X91440Y44450
X80010Y16307
X73660Y46939
X73660Y44450
X73660Y54458
X80010Y3810
X73660Y51943
X73660Y49454
X54610Y74803
X54610Y72314
X54610Y69799
X54610Y67310
X67310Y74803
X67310Y72314
X67310Y69799
X80010Y6299
X80010Y-11633
X80010Y-14122
X80010Y-16637
X80010Y-19126
X80010Y-21641
X80010Y-24130
X80010Y8814
X80010Y11303
X67310Y67310
X80010Y13818
X92710Y67310
X92710Y69799
X92710Y72314
X92710Y74803
X80010Y67310
X80010Y69799
X80010Y72314
X80010Y74803
T5
X55880Y52070
X38100Y39370
X38100Y36830
X38100Y34290
X38100Y22860
X38100Y20320
X38100Y17780
X41910Y57150
X41910Y59690
X41910Y49530
X41910Y52070
X41910Y74930
X41910Y77470
X41910Y67310
X41910Y69850
X53340Y57150
X55880Y57150
X53340Y54610
X55880Y54610
X53340Y52070
T6
X57150Y33020
X44450Y16510
X44450Y24130
X50800Y16510
X50800Y24130
X57150Y24130
X57150Y16510
X35560Y50800
X27940Y50800
X35560Y68580
X27940Y68580
X35560Y58420
X27940Y58420
X13970Y45720
X13970Y43180
X13970Y40640
X13970Y38100
X13970Y35560
X13970Y33020
X13970Y30480
X13970Y27940
X21590Y49530
X21590Y52070
X21590Y67310
X21590Y69850
X13970Y25400
X13970Y22860
X6350Y40640
X6350Y38100
X6350Y35560
X6350Y33020
X6350Y30480
X6350Y27940
X57150Y40640
X6350Y22860
X6350Y13970
X6350Y11430
X6350Y8890
X6350Y6350
X6350Y3810
X6350Y-5080
X6350Y-7620
X13970Y3810
X13970Y6350
X13970Y8890
X13970Y11430
X13970Y13970
X6350Y-10160
X6350Y-12700
X6350Y25400
X6350Y-15240
X21590Y77470
X21590Y74930
X21590Y59690
X21590Y57150
X13970Y-13970
X13970Y-16510
X13970Y-19050
X13970Y-21590
X13970Y-24130
X44450Y40640
X44450Y33020
X35560Y76200
X27940Y76200
X50800Y33020
X50800Y40640
T7
X42164Y54610
X32461Y10820
X30937Y10211
X35687Y54610
M30